{"title":"The.Daily.Show.with.Trevor.Noah.2016.02.01.Reshma.Saujani.720p.C","uid":13418496,"size":559545245,"categoryP":"video","categoryS":"hd___tv_shows","magnet":"?xt=urn:btih:78cee72de2b2dd8951b66337450debbfbfd12499&amp;dn=The.Daily.Show.with.Trevor.Noah.2016.02.01.Reshma.Saujani.720p.C&amp;tr=udp%3A%2F%2Ftracker.leechers-paradise.org%3A6969&amp;tr=udp%3A%2F%2Fzer0day.ch%3A1337&amp;tr=udp%3A%2F%2Fopen.demonii.com%3A1337&amp;tr=udp%3A%2F%2Ftracker.coppersurfer.tk%3A6969&amp;tr=udp%3A%2F%2Fexodus.desync.com%3A6969","seeders":1,"leechers":0,"uploader":"gotabgood","files":2,"time":1454523697,"description":"Video\r\nID                                       : 1\r\nFormat                                   : AVC\r\nFormat/Info                              : Advanced Video Codec\r\nFormat profile                           :   \r\nFormat settings, CABAC                   : Yes\r\nFormat settings, ReFrames                : 3 frames\r\nCodec ID                                 : V_MPEG4/ISO/AVC\r\nDuration                                 : 21mn 30s\r\nBit rate                                 : 3 404 Kbps\r\nWidth                                    : 1 280 pixels\r\nHeight                                   : 720 pixels\r\nDisplay aspect ratio                     : 16:9\r\nFrame rate mode                          : Constant\r\nFrame rate                               : 29.970 (30000/1001) fps\r\nColor space                              : YUV\r\nChroma subsampling                       : 4:2:0\r\nBit depth                                : 8 bits\r\nScan type                                : Progressive\r\nBits/(Pixel*Frame)                       : 0.123\r\nStream size                              : 518 MiB (97%)\r\nWriting library                          : x264 core 138\r\nEncoding settings                        : cabac=1 / ref=3 / deblock=1:0:0 / analyse=0x3:0x113 / me=hex / subme=7 / psy=1 / psy_rd=1.00:0.00 / mixed_ref=1 / me_range=16 / chroma_me=1 / trellis=1 / 8x8dct=1 / cqm=0 / deadzone=21,11 / fast_pskip=1 / chroma_qp_offset=-2 / threads=4 / lookahead_threads=1 / sliced_threads=0 / nr=0 / decimate=1 / interlaced=0 / bluray_compat=0 / constrained_intra=0 / bframes=3 / b_pyramid=0 / b_adapt=1 / b_bias=0 / direct=1 / weightb=1 / open_gop=0 / weightp=2 / keyint=60 / keyint_min=6 / scenecut=0 / intra_refresh=0 / rc_lookahead=40 / rc=abr / mbtree=1 / bitrate=3404 / ratetol=1.0 / qcomp=0.60 / qpmin=0 / qpmax=69 / qpstep=4 / ip_ratio=1.40 / aq=1:1.00\r\nLanguage                                 : English\r\nDefault                                  : Yes\r\nForced                                   : No\r\n\r\nAudio\r\nID                                       : 2\r\nFormat                                   : AAC\r\nFormat/Info                              : Advanced Audio Codec\r\nFormat profile                           : HE-AAC / LC\r\nCodec ID                                 : A_AAC\r\nDuration                                 : 21mn 30s\r\nBit rate                                 : 96.0 Kbps\r\nChannel(s)                               : 2 channels\r\nChannel positions                        : Front: L R\r\nSampling rate                            : 48.0 KHz / 24.0 KHz\r\nFrame rate                               : 23.438 fps (1024 spf)\r\nCompression mode                         : Lossy\r\nStream size                              : 14.8 MiB (3%)\r\nLanguage                                 : English\r\nDefault                                  : Yes\r\nForced                                   : No\r\n\r\nText\r\nID                                       : 3\r\nFormat                                   : UTF-8\r\nCodec ID                                 : S_TEXT/UTF8\r\nCodec ID/Info                            : UTF-8 Plain Text\r\nDuration                                 : 20mn 50s\r\nBit rate                                 : 184 bps\r\nCount of elements                        : 537\r\nStream size                              : 28.2 KiB (0%)\r\nLanguage                                 : English\r\nDefault                                  : No\r\nForced                                   : No","torrent":{"xt":"urn:btih:78cee72de2b2dd8951b66337450debbfbfd12499","amp;dn":"The.Daily.Show.with.Trevor.Noah.2016.02.01.Reshma.Saujani.720p.C","amp;tr":["udp%3A%2F%2Ftracker.leechers-paradise.org%3A6969","udp%3A%2F%2Fzer0day.ch%3A1337","udp%3A%2F%2Fopen.demonii.com%3A1337","udp%3A%2F%2Ftracker.coppersurfer.tk%3A6969","udp%3A%2F%2Fexodus.desync.com%3A6969"],"infoHash":"78cee72de2b2dd8951b66337450debbfbfd12499","infoHashBuffer":{"type":"Buffer","data":[120,206,231,45,226,178,221,137,81,182,99,55,69,13,235,191,191,209,36,153]},"announce":[],"urlList":[]}}